<svg width="29" height="29" viewBox="0 0 29 29" fill="none" xmlns="http://www.w3.org/2000/svg">
<path d="M5.99121 7.55554H24.3388C24.7106 7.55556 25.0782 7.63689 25.418 7.7943C25.7578 7.95171 26.0623 8.1817 26.3117 8.46945C26.5612 8.7572 26.7501 9.09632 26.8663 9.46495C26.9826 9.83359 27.0235 10.2236 26.9865 10.6097L26.1882 18.943C26.1225 19.6285 25.8153 20.264 25.326 20.7262C24.8367 21.1884 24.2004 21.4444 23.5405 21.4444H10.8342C10.2188 21.4447 9.62238 21.2223 9.14642 20.8151C8.67045 20.4079 8.34441 19.841 8.22379 19.2111L5.99121 7.55554Z" stroke="#FFDABB" stroke-width="2.5" stroke-linejoin="round"/>
<path d="M20.626 27H23.287M5.99052 7.55556L4.91282 3.05139C4.84074 2.75105 4.6746 2.48446 4.44077 2.29397C4.20694 2.10348 3.91884 2.00001 3.62223 2H1.99902L5.99052 7.55556ZM9.98202 27H12.643H9.98202Z" stroke="#FFDABB" stroke-width="2.5" stroke-linecap="round" stroke-linejoin="round"/>
</svg>
