<svg width="123" height="121" viewBox="0 0 123 121" fill="none" xmlns="http://www.w3.org/2000/svg">
<g opacity="0.7">
<path d="M45.3813 16.1974C44.6408 16.5221 44.2405 16.9663 44.1806 17.53C44.1546 17.7334 44.184 17.9316 44.2687 18.1248C44.4663 18.5756 44.9631 18.8184 45.7589 18.8533C45.9314 18.8672 46.2092 18.8734 46.5924 18.8717C47.6324 18.8507 48.3679 18.9377 48.7989 19.1326C49.2654 19.3503 49.6022 19.6952 49.8093 20.1674C50.134 20.908 49.9544 21.6073 49.2705 22.2655C48.9561 22.5697 48.5788 22.8183 48.1388 23.0113C47.4305 23.3219 46.7529 23.4398 46.1059 23.3652C46.2424 23.6765 46.2449 23.8865 46.1135 23.9953C46.0538 24.0343 45.9864 24.0702 45.9113 24.1032L45.0289 22.0909L45.4475 21.9073C45.9019 22.8853 46.6681 23.1443 47.746 22.6845C48.5509 22.3315 48.9464 21.8766 48.9325 21.3196C48.9297 21.1673 48.8977 21.0214 48.8366 20.8819C48.6342 20.4204 48.1297 20.1745 47.3231 20.1444C47.1399 20.1351 46.8591 20.1367 46.4807 20.1491C45.4561 20.1761 44.7283 20.0922 44.2973 19.8973C43.8355 19.6903 43.5011 19.3507 43.294 18.8785C42.9128 18.0092 43.1202 17.2273 43.9161 16.5328C44.2185 16.2594 44.579 16.031 44.9975 15.8474C45.7749 15.5193 46.5304 15.4184 47.2639 15.5446C47.1416 15.2656 47.1408 15.074 47.2614 14.9699C47.3211 14.9309 47.3939 14.8926 47.4798 14.855L48.5528 17.3019L48.102 17.4996C47.4734 16.1245 46.5665 15.6905 45.3813 16.1974Z" fill="#FFD0A8"/>
<path d="M35.5423 30.1241C34.9622 30.7041 34.3324 30.8449 33.6529 30.5465C33.4292 30.4554 33.2262 30.3186 33.0439 30.1363C32.6296 29.7219 32.5758 29.2703 32.8825 28.7815C33.0482 28.5329 33.3259 28.2222 33.7154 27.8493L35.0703 26.5692C35.9817 27.5637 36.2924 28.4959 36.0023 29.366C35.9111 29.656 35.7577 29.9087 35.5423 30.1241ZM29.4768 28.3834L29.8994 28.1845C29.5598 27.2647 29.6717 26.4402 30.2353 25.7111C30.3099 25.6199 30.3845 25.5371 30.4591 25.4625C31.3292 24.5925 32.394 24.5636 33.6535 25.3758C34.0098 25.5996 34.3661 25.8814 34.7223 26.2212L33.2058 27.6877C32.1781 28.682 31.6229 29.4277 31.54 29.9248C31.4819 30.3143 31.6062 30.6623 31.9127 30.969C32.4762 31.5325 33.2095 31.6942 34.1127 31.454C34.7591 31.2883 35.3475 30.9403 35.8778 30.4101C36.9138 29.3744 37.2246 28.2019 36.8104 26.8926C36.5951 26.2131 36.2057 25.5915 35.6423 25.028C34.6148 24.0004 33.4838 23.6067 32.2491 23.8468C31.5199 23.9959 30.8735 24.3522 30.31 24.9156C29.4149 25.8104 29.0792 26.7923 29.3029 27.8613C29.3526 28.0436 29.4105 28.2176 29.4768 28.3834Z" fill="#FFD0A8"/>
<path d="M20.4669 38.926L20.7646 38.1931L24.2823 39.6222C25.2787 40.065 25.8606 40.7188 26.0278 41.5836C26.0933 41.9518 26.0643 42.2878 25.9408 42.5918C25.6717 43.2541 25.1793 43.579 24.4634 43.5664C24.174 43.5627 23.8718 43.4968 23.557 43.3689L20.3325 42.0589C19.8331 41.856 19.5918 41.5936 19.6088 41.2716C19.6207 41.0867 19.7016 40.8097 19.8516 40.4405L19.4444 40.2751L17.9558 43.9393C18.1946 44.0364 18.358 44.0079 18.4459 43.8538C18.4744 43.8148 18.5019 43.7628 18.5283 43.6976L18.8591 42.8833L22.8979 44.5242C23.9836 44.9652 24.9121 44.9061 25.6833 44.3466C26.0307 44.083 26.286 43.7503 26.4492 43.3486C26.7756 42.5452 26.7244 41.7528 26.2955 40.9714C26.1252 40.6745 25.9123 40.4046 25.6569 40.1617L27.3119 40.7582L28.2712 38.3968L27.8641 38.2314L27.3679 39.4528L22.238 37.3687C21.7385 37.1658 21.4973 36.9034 21.5143 36.5814C21.5262 36.3965 21.6071 36.1194 21.757 35.7503L21.3499 35.5849L19.8943 39.1677C20.1332 39.2647 20.2966 39.2362 20.3844 39.0822C20.4129 39.0432 20.4404 38.9911 20.4669 38.926Z" fill="#FFD0A8"/>
<path d="M15.4485 59.8883L15.5176 62.401C15.7753 62.3939 15.9135 62.3022 15.9321 62.1258C15.9425 62.0786 15.9468 62.0199 15.9448 61.9496L15.9207 61.0711L26.9019 60.7339L26.8198 57.7468L26.3805 57.7589L26.4264 59.4282L22.1389 59.546C22.7557 58.9547 23.0507 58.1728 23.024 57.2005C22.9886 55.9119 22.3878 54.9554 21.2218 54.331C20.508 53.952 19.7118 53.7746 18.8332 53.7988C17.3806 53.8387 16.3331 54.3247 15.6905 55.2568C15.3415 55.7822 15.1755 56.3554 15.1926 56.9762C15.2512 58.2525 15.956 59.1592 17.3072 59.6965L15.4485 59.8883ZM19.0851 55.2866C20.7369 55.2412 21.821 55.6568 22.3374 56.5336C22.4975 56.8106 22.5821 57.1189 22.5915 57.4586C22.615 58.3137 22.1749 58.9355 21.2712 59.3237C20.7846 59.5364 20.2075 59.6519 19.5398 59.6703C18.1341 59.7089 17.1053 59.3855 16.4534 58.7C16.1033 58.3345 15.9217 57.9116 15.9085 57.4313C15.8821 56.4708 16.4506 55.8279 17.614 55.5029C18.0442 55.3738 18.5346 55.3017 19.0851 55.2866Z" fill="#FFD0A8"/>
<path d="M23.6717 85.5442L23.128 84.9697L25.8859 82.36C26.6591 81.6767 27.4623 81.4087 28.2955 81.5561C28.6832 81.6248 28.9858 81.7741 29.2032 82.0039C29.606 82.4295 29.6498 82.9446 29.3347 83.5494C29.1948 83.8108 28.9972 84.0623 28.7419 84.3039L26.2138 86.6962C25.8223 87.0667 25.4996 87.1945 25.2458 87.0798C25.0905 87.0009 24.8759 86.8167 24.602 86.5273L24.2828 86.8294L26.8805 89.5745C27.0677 89.3973 27.1095 89.2368 27.0057 89.093C26.9819 89.0509 26.9459 89.0043 26.8976 88.9532L26.3539 88.3787L29.5203 85.3823L29.6225 85.2857C30.3727 84.8339 31.0928 84.7253 31.7826 84.9598C32.0369 85.058 32.2405 85.188 32.3936 85.3497C32.8044 85.7838 32.8688 86.3037 32.5868 86.9094C32.4545 87.1958 32.2522 87.468 31.9798 87.7257L29.4518 90.1179C29.0603 90.4884 28.7376 90.6163 28.4838 90.5016C28.3284 90.4227 28.1139 90.2385 27.84 89.9491L27.5208 90.2512L30.1909 93.0728C30.3782 92.8956 30.4199 92.7351 30.3161 92.5914C30.2924 92.5493 30.2564 92.5027 30.2081 92.4516L29.5919 91.8004L32.7583 88.8041C33.635 87.9745 33.978 87.1094 33.7874 86.2089C33.6989 85.8085 33.5138 85.4594 33.2319 85.1615C32.6197 84.5146 31.8262 84.2813 30.8514 84.4616C30.6015 84.5045 30.3592 84.5724 30.1245 84.6654C30.652 83.8759 30.7679 83.1289 30.4724 82.4244C30.387 82.2148 30.2678 82.0291 30.1147 81.8674C29.5348 81.2545 28.7959 80.9937 27.8981 81.085C27.5739 81.1175 27.2567 81.1999 26.9463 81.3323L28.1748 80.073L26.4229 78.2217L26.1037 78.5238L27.0098 79.4813L22.988 83.2872C22.5964 83.6577 22.2576 83.7685 21.9716 83.6197C21.8082 83.5323 21.5896 83.3439 21.3157 83.0545L20.9966 83.3565L23.6546 86.1655C23.8333 85.9963 23.8751 85.8358 23.7798 85.684C23.748 85.6334 23.712 85.5868 23.6717 85.5442Z" fill="#FFD0A8"/>
<path d="M40.6409 103.587C40.4644 103.524 40.3795 103.344 40.3862 103.048C40.3836 102.673 40.341 102.428 40.2584 102.311C40.1829 102.209 40.079 102.135 39.9466 102.087C39.5936 101.96 39.3342 102.042 39.1682 102.331C39.1413 102.371 39.122 102.408 39.1101 102.441C38.9597 102.86 39.0935 103.25 39.5116 103.612C39.7005 103.779 39.9163 103.906 40.159 103.994C41.0304 104.306 41.9779 104.042 43.0016 103.202C43.4206 102.867 43.8584 102.445 44.3147 101.936L48.9302 96.7758C49.1513 96.5065 49.336 96.3735 49.4842 96.3769C49.5693 96.3826 49.6615 96.4032 49.7608 96.4388C49.9814 96.518 50.13 96.5028 50.2066 96.3933C50.2524 96.3351 50.2932 96.2563 50.3288 96.157L47.8139 95.2547L47.6595 95.6849L48.8673 96.1182L44.8499 100.653L44.4828 94.5451L45.5914 94.9428L45.7457 94.5127L42.5194 93.3551L42.365 93.7852L43.1757 94.0761L43.7853 101.746C42.6452 102.981 41.7633 103.617 41.1397 103.654C40.9616 103.665 40.7953 103.643 40.6409 103.587Z" fill="#FFD0A8"/>
<path d="M71.7764 104.173L71.0395 104.461L69.6593 100.923C69.3171 99.95 69.3711 99.105 69.8211 98.3885C70.0306 98.0551 70.2828 97.8309 70.5776 97.7159C71.1234 97.5029 71.6172 97.6561 72.0589 98.1756C72.2485 98.4036 72.4072 98.6813 72.535 99.0088L73.8002 102.251C73.9962 102.753 73.9932 103.1 73.7914 103.292C73.6599 103.407 73.4085 103.536 73.0373 103.681L73.1971 104.09L76.7178 102.717C76.6241 102.476 76.4911 102.377 76.3188 102.419C76.2709 102.425 76.2142 102.441 76.1487 102.467L75.4118 102.754L73.8271 98.6933L73.7759 98.5623C73.6396 97.6972 73.8099 96.9892 74.2868 96.4383C74.4735 96.2397 74.6705 96.0999 74.8779 96.0189C75.4347 95.8017 75.9406 95.9376 76.3956 96.4267C76.6113 96.6571 76.7873 96.9469 76.9236 97.2963L78.1889 100.539C78.3848 101.041 78.3819 101.388 78.18 101.58C78.0485 101.694 77.7972 101.824 77.426 101.968L77.5857 102.378L81.2047 100.966C81.111 100.725 80.978 100.626 80.8057 100.668C80.7578 100.675 80.7011 100.69 80.6356 100.716L79.8004 101.042L78.2157 96.9808C77.7769 95.8563 77.1045 95.213 76.1984 95.0508C75.7942 94.9821 75.401 95.0223 75.0189 95.1714C74.1892 95.4952 73.6745 96.1426 73.4748 97.1137C73.4205 97.3613 73.3923 97.6113 73.3901 97.8637C72.8571 97.078 72.2086 96.6895 71.4447 96.6982C71.2183 96.6985 71.0015 96.7391 70.794 96.82C70.008 97.1268 69.4884 97.7132 69.2352 98.5794C69.1433 98.892 69.1003 99.2169 69.1061 99.5543L68.4016 97.9423L66.0272 98.8689L66.1869 99.2783L67.4151 98.799L69.428 103.957C69.6239 104.459 69.5991 104.815 69.3536 105.024C69.2112 105.143 68.9544 105.274 68.5832 105.419L68.7429 105.828L72.3456 104.423C72.2561 104.193 72.1231 104.094 71.9466 104.125C71.8877 104.136 71.831 104.152 71.7764 104.173Z" fill="#FFD0A8"/>
<path d="M89.1396 86.6552C89.6868 86.0441 90.3078 85.8687 91.0027 86.1291C91.2311 86.2078 91.4414 86.3331 91.6334 86.5051C92.07 86.8959 92.1486 87.3439 91.8695 87.8489C91.7177 88.1063 91.4576 88.4319 91.0893 88.8257L89.8071 90.1786C88.8422 89.236 88.4805 88.3224 88.7222 87.4376C88.7972 87.143 88.9363 86.8822 89.1396 86.6552ZM95.2919 88.0583L94.8809 88.2802C95.2708 89.1799 95.2046 90.0093 94.6822 90.7684C94.6127 90.8636 94.5428 90.9504 94.4725 91.029C93.6517 91.9457 92.5901 92.0334 91.2877 91.292C90.9196 91.0882 90.5483 90.8265 90.1738 90.507L91.6071 88.9589C92.5782 87.9094 93.0914 87.1342 93.1468 86.6332C93.1832 86.2411 93.0399 85.9004 92.7169 85.6112C92.1232 85.0797 91.3821 84.9587 90.4935 85.2485C89.8573 85.4496 89.289 85.8295 88.7887 86.3883C87.8116 87.4796 87.566 88.6675 88.0518 89.9519C88.3044 90.6185 88.7275 91.2175 89.3212 91.7491C90.4038 92.7184 91.5549 93.0491 92.7744 92.741C93.4943 92.5519 94.12 92.1605 94.6516 91.5668C95.4958 90.6239 95.7768 89.625 95.4944 88.57C95.4348 88.3907 95.3672 88.2202 95.2919 88.0583Z" fill="#FFD0A8"/>
<path d="M103.617 77.4651C103.9 76.7079 103.861 76.1113 103.498 75.6753C103.371 75.5149 103.208 75.3977 103.011 75.3238C102.55 75.1512 102.029 75.3381 101.449 75.8843C101.319 75.9982 101.121 76.1931 100.855 76.4689C100.145 77.2292 99.57 77.6958 99.1299 77.8689C98.6485 78.0516 98.1664 78.0526 97.6835 77.8718C96.9263 77.5883 96.5501 76.972 96.555 76.0229C96.5562 75.5853 96.6409 75.1416 96.8094 74.6916C97.0805 73.9673 97.4684 73.3992 97.9729 72.9874C97.6546 72.8683 97.5023 72.7237 97.5159 72.5536C97.5296 72.4836 97.5508 72.4102 97.5795 72.3334L99.6373 73.1038L99.4771 73.5318C98.4592 73.1757 97.7393 73.5444 97.3175 74.6378C97.0094 75.4609 97.0598 76.0617 97.4687 76.44C97.5799 76.5442 97.7068 76.6229 97.8495 76.6764C98.3214 76.853 98.8494 76.6628 99.4333 76.1056C99.5677 75.9807 99.7623 75.7783 100.017 75.4983C100.712 74.7449 101.28 74.2817 101.72 74.1086C102.19 73.9218 102.667 73.9188 103.15 74.0996C104.039 74.4323 104.455 75.1261 104.398 76.1809C104.383 76.5883 104.295 77.006 104.135 77.434C103.828 78.2201 103.374 78.8321 102.772 79.2699C103.058 79.3768 103.195 79.5097 103.186 79.6688C103.172 79.7388 103.149 79.8177 103.116 79.9055L100.614 78.9687L100.786 78.5078C102.21 79.0158 103.154 78.6683 103.617 77.4651Z" fill="#FFD0A8"/>
<path d="M107.375 61.5532C107.375 60.7446 107.129 60.1997 106.636 59.9185C106.461 59.813 106.267 59.7603 106.056 59.7603C105.564 59.7603 105.142 60.1178 104.791 60.8327C104.709 60.985 104.592 61.237 104.439 61.5885C104.041 62.5495 103.666 63.1882 103.314 63.5046C102.928 63.8445 102.477 64.0145 101.961 64.0145C101.152 64.0145 100.584 63.5693 100.256 62.6787C100.103 62.2685 100.027 61.8232 100.027 61.3427C100.027 60.5693 100.191 59.9013 100.519 59.3388C100.179 59.3388 99.9859 59.2568 99.939 59.0928C99.9273 59.0224 99.9215 58.9463 99.9215 58.8642L102.119 58.8641L102.119 59.3211C101.041 59.3446 100.496 59.9423 100.484 61.1142C100.484 61.9931 100.742 62.538 101.258 62.7489C101.398 62.8075 101.545 62.8368 101.697 62.8368C102.201 62.8367 102.629 62.4734 102.98 61.7468C103.062 61.5828 103.174 61.325 103.314 60.9734C103.701 60.0241 104.07 59.3913 104.421 59.0749C104.796 58.735 105.242 58.565 105.757 58.565C106.707 58.5649 107.339 59.0688 107.656 60.0766C107.785 60.4633 107.849 60.8852 107.849 61.3422C107.838 62.186 107.627 62.9184 107.217 63.5395C107.521 63.5395 107.697 63.6157 107.744 63.768C107.756 63.8383 107.762 63.9203 107.762 64.0141L105.09 64.0143L105.09 63.5221C106.601 63.4985 107.363 62.8422 107.375 61.5532Z" fill="#FFD0A8"/>
<path d="M104.541 41.9395C104.212 41.0989 103.524 40.8331 102.474 41.142C102.405 41.1566 102.342 41.1746 102.288 41.1959L102.438 41.628C103.264 41.3934 103.751 41.4486 103.899 41.7937C103.988 42.0861 103.761 42.3442 103.22 42.5682L99.7646 43.9167C98.2035 44.526 97.684 45.6283 98.2059 47.2234C98.2443 47.3217 98.2826 47.4199 98.321 47.5182C98.7982 48.7409 99.4016 49.4488 100.131 49.6421C100.368 49.7007 100.579 49.6937 100.765 49.6213C101.103 49.4892 101.238 49.2542 101.169 48.9164C101.158 48.8575 101.143 48.8008 101.121 48.7462C101.023 48.4951 100.792 48.3713 100.429 48.3748C99.9655 48.3796 99.6848 48.3696 99.5871 48.3449C99.2332 48.244 98.9711 47.9752 98.8006 47.5385C98.4656 46.4868 98.8212 45.7379 99.8673 45.2919L100.899 44.8892C101.9 47.4546 103.008 48.7142 104.223 48.6678C104.456 48.6523 104.692 48.5977 104.933 48.504C105.762 48.1802 106.187 47.5929 106.207 46.7422C106.213 46.4006 106.151 46.066 106.023 45.7385C105.712 44.9416 105.177 44.3767 104.418 44.0439C104.134 43.9284 103.858 43.8662 103.591 43.8574C104.511 43.3472 104.828 42.7079 104.541 41.9395ZM105.157 45.4538C105.417 46.1197 105.244 46.659 104.638 47.0718C104.498 47.1642 104.335 47.2466 104.149 47.319C103.418 47.6045 102.79 47.3653 102.265 46.6014C101.992 46.1921 101.684 45.5639 101.341 44.7167L102.651 44.2054C103.468 44.0751 104.153 44.2669 104.706 44.7808C104.913 44.9893 105.064 45.2136 105.157 45.4538Z" fill="#FFD0A8"/>
<path d="M94.4019 33.8288C93.2624 34.8751 92.2936 34.9853 91.4956 34.1593C90.7232 33.3091 90.8904 32.3521 91.9972 31.2883C93.1708 30.2098 94.1526 30.0792 94.9425 30.8967C95.723 31.7554 95.5428 32.7327 94.4019 33.8288ZM91.1644 34.4486C91.8894 35.2146 92.7122 35.5895 93.6328 35.5733C94.3049 35.5503 94.8877 35.3052 95.3814 34.838C96.0282 34.2258 96.2663 33.4033 96.0957 32.3708C96.0819 32.2709 96.0638 32.1751 96.0414 32.0833C96.557 32.628 97.1133 32.7469 97.7103 32.44C97.8451 32.3608 97.9678 32.2688 98.0784 32.1641C98.5214 31.7286 98.6844 31.2274 98.5674 30.6605C99.1311 30.6594 99.5661 30.5139 99.8725 30.2239C100.341 29.7808 100.428 29.1739 100.134 28.4032C99.9568 27.9092 99.6266 27.407 99.1432 26.8963C97.9187 25.6027 96.7942 25.0454 95.7697 25.2245C95.428 25.2897 95.1381 25.4351 94.8998 25.6607C94.1678 26.3535 94.1453 27.1735 94.8322 28.1208C94.9199 28.2476 95.0201 28.3705 95.1329 28.4897L97.2811 30.8615C97.6261 31.2771 97.6452 31.6382 97.3384 31.9448C97.1171 32.1543 96.8438 32.1468 96.5183 31.9223C96.4534 31.8708 96.3888 31.811 96.3243 31.7429L95.2737 30.6074C94.5568 29.8499 93.7295 29.4873 92.7919 29.5196C92.1198 29.5426 91.5327 29.7917 91.0305 30.267C90.4003 30.8797 90.1233 31.6099 90.1995 32.4575C89.8546 32.6387 89.556 32.6471 89.3035 32.4827C89.2628 32.4567 89.2263 32.4266 89.1941 32.3926C89.0813 32.2735 89.0243 32.0854 89.023 31.8284C89.0195 31.6542 88.9815 31.5288 88.909 31.4522C88.6566 31.2878 88.4036 31.2933 88.1501 31.4687C87.8863 31.7184 87.8243 32.011 87.9643 32.3464C88.0189 32.4722 88.0905 32.582 88.1791 32.6756C88.5577 33.0756 89.0426 33.2298 89.6337 33.1383C89.8584 33.103 90.0759 33.0344 90.2859 32.9324C90.4527 33.5007 90.7455 34.0061 91.1644 34.4486ZM98.8113 27.2105C99.6088 28.0531 99.891 28.7944 99.6579 29.4346C99.5952 29.607 99.5042 29.7495 99.3851 29.8623C99.1472 30.0713 98.8208 30.1867 98.4057 30.2084C98.2786 30.006 98.1627 29.8495 98.058 29.7388L96.2226 27.7487C95.627 27.1023 95.4212 26.5951 95.6054 26.2272C95.6493 26.1372 95.7223 26.0439 95.8245 25.9472C96.1989 25.5927 96.8016 25.6839 97.6324 26.2207C98.0397 26.4805 98.4327 26.8105 98.8113 27.2105Z" fill="#FFD0A8"/>
<path d="M79.5933 24.5901C78.8466 24.2504 78.4938 23.71 78.5348 22.9691C78.5417 22.7276 78.5986 22.4895 78.7053 22.2549C78.948 21.7215 79.352 21.5127 79.9174 21.6283C80.2083 21.6963 80.5967 21.8473 81.0825 22.0812L82.7566 22.9009C82.1451 24.1033 81.3811 24.7213 80.4646 24.7549C80.1611 24.7712 79.8706 24.7163 79.5933 24.5901ZM79.0953 18.2995L79.4298 18.6255C80.172 17.9847 80.9834 17.8003 81.8639 18.0722C81.9754 18.1101 82.0791 18.1508 82.1751 18.1945C83.2951 18.7041 83.6958 19.6911 83.3771 21.1555C83.2925 21.5676 83.1537 22.0001 82.9605 22.453L81.0551 21.5473C79.7635 20.9339 78.8704 20.6755 78.3757 20.7723C77.9906 20.8546 77.7083 21.0931 77.5287 21.4877C77.1987 22.213 77.3046 22.9565 77.8464 23.718C78.2283 24.2652 78.7606 24.6941 79.4433 25.0047C80.7766 25.6114 81.9836 25.4911 83.0644 24.6439C83.6251 24.2038 84.0705 23.6211 84.4005 22.8958C85.0024 21.5731 84.9742 20.3759 84.3161 19.3039C83.9207 18.6733 83.3603 18.193 82.635 17.863C81.483 17.3388 80.4457 17.369 79.5232 17.9534C79.3699 18.0639 79.2273 18.1793 79.0953 18.2995Z" fill="#FFD0A8"/>
</g>
<path fill-rule="evenodd" clip-rule="evenodd" d="M77.5 62.7678L85 57.5716L77.5 52.3755V56.5716H43V58.5716H77.5V62.7678Z" fill="#FFD0A8"/>
</svg>
