<svg width="152" height="150" viewBox="0 0 152 150" fill="none" xmlns="http://www.w3.org/2000/svg">
<path d="M56.414 19.0513C56.651 19.5945 57.0419 19.9524 57.5867 20.1251C58.1273 20.2992 58.7515 20.2748 59.4594 20.052C59.9571 19.8953 60.3604 19.6858 60.6692 19.4236C60.9781 19.1613 61.1864 18.8717 61.2941 18.5548C61.4019 18.238 61.4059 17.9137 61.3062 17.582C61.2197 17.3074 61.0825 17.0888 60.8946 16.9264C60.7024 16.7652 60.4746 16.6483 60.2113 16.5756C59.9492 16.5072 59.6703 16.4677 59.3746 16.457C59.0789 16.4464 58.7857 16.4514 58.4952 16.4721L57.1622 16.5522C56.6281 16.5931 56.1004 16.5871 55.5792 16.5342C55.0537 16.4827 54.5613 16.3642 54.102 16.1787C53.6385 15.9945 53.2326 15.7238 52.8844 15.3666C52.5361 15.0094 52.2722 14.5454 52.0925 13.9748C51.8494 13.2025 51.8327 12.4603 52.0424 11.7482C52.2534 11.0405 52.6802 10.4039 53.3228 9.83849C53.9624 9.27874 54.8099 8.83273 55.8654 8.50046C56.8908 8.17765 57.8311 8.05613 58.6861 8.13591C59.5369 8.21704 60.2706 8.49537 60.8872 8.9709C61.4994 9.44779 61.9605 10.1185 62.2704 10.9829L59.9213 11.7224C59.7425 11.2741 59.4807 10.9369 59.1359 10.7106C58.7912 10.4843 58.3957 10.3589 57.9494 10.3343C57.4988 10.3111 57.0246 10.3778 56.5269 10.5345C56.0078 10.698 55.5773 10.9184 55.2355 11.1957C54.8907 11.4787 54.6507 11.7948 54.5154 12.1439C54.3814 12.4973 54.3717 12.8635 54.4863 13.2424C54.5986 13.5843 54.7886 13.8358 55.0562 13.9967C55.3252 14.162 55.6613 14.2637 56.0647 14.3017C56.4652 14.3454 56.9203 14.3531 57.4301 14.3246L59.0512 14.2387C60.2245 14.1759 61.2156 14.3283 62.0246 14.6961C62.8307 15.0696 63.3823 15.7282 63.6794 16.6722C63.9239 17.4487 63.9277 18.195 63.691 18.9109C63.4499 19.6281 63.0153 20.2624 62.3872 20.8138C61.7605 21.3695 60.9859 21.7926 60.0634 22.083C59.1281 22.3774 58.2573 22.4723 57.451 22.3678C56.6417 22.2689 55.945 21.9954 55.3607 21.5474C54.7777 21.1038 54.363 20.5128 54.1164 19.7746L56.414 19.0513Z" fill="#FFD0A8"/>
<path d="M43.5175 20.7088L40.1581 15.6503L42.1927 14.299L49.8374 25.81L47.8477 27.1313L44.9623 22.7866L44.8611 22.8538C44.9823 23.4753 44.9245 24.0672 44.6877 24.6294C44.4496 25.1979 44.0009 25.7011 43.3414 26.1391C42.7419 26.5372 42.1358 26.7588 41.5232 26.8039C40.9105 26.849 40.3219 26.7107 39.7574 26.3891C39.189 26.07 38.6735 25.5619 38.2106 24.865L34.56 19.368L36.5946 18.0168L40.0362 23.199C40.4219 23.7798 40.8717 24.1317 41.3854 24.2549C41.898 24.3843 42.4221 24.2711 42.958 23.9152C43.3177 23.6763 43.5877 23.3836 43.7679 23.0371C43.9469 22.6969 44.0199 22.3271 43.987 21.9278C43.9502 21.5311 43.7938 21.1247 43.5175 20.7088Z" fill="#FFD0A8"/>
<path d="M24.1504 28.8405C24.8111 28.0739 25.5524 27.5548 26.3742 27.2833C27.1961 27.0119 28.0439 26.9825 28.9176 27.1951C29.7884 27.4112 30.6292 27.8687 31.4402 28.5676C32.2511 29.2665 32.8294 30.0321 33.175 30.8644C33.5176 31.7001 33.6153 32.5444 33.4681 33.3974C33.3209 34.2503 32.9169 35.0601 32.2562 35.8267C31.5954 36.5933 30.8541 37.1124 30.0323 37.3838C29.2104 37.6553 28.3624 37.6815 27.4882 37.4625C26.6111 37.2469 25.7671 36.7897 24.9561 36.0908C24.1452 35.3919 23.5701 34.626 23.2309 33.7932C22.8887 32.9639 22.7912 32.1227 22.9384 31.2698C23.0856 30.4169 23.4896 29.6071 24.1504 28.8405ZM25.6237 30.1281C25.2654 30.5438 25.08 30.9897 25.0675 31.4659C25.0584 31.945 25.1893 32.42 25.4603 32.8911C25.7283 33.3656 26.1008 33.8084 26.5779 34.2195C27.0583 34.6336 27.5529 34.9381 28.0617 35.1332C28.571 35.3346 29.0619 35.3955 29.5344 35.3158C30.0069 35.2361 30.4223 34.9884 30.7806 34.5727C31.1476 34.1468 31.3372 33.6926 31.3492 33.2101C31.3583 32.731 31.2272 32.2528 30.9558 31.7754C30.6848 31.3043 30.3091 30.8617 29.8287 30.4477C29.3517 30.0366 28.8602 29.7318 28.3543 29.5333C27.8455 29.3382 27.3548 29.2805 26.8823 29.3602C26.4103 29.4463 25.9908 29.7022 25.6237 30.1281Z" fill="#FFD0A8"/>
<path d="M12.3858 38.7628L25.2898 44.8083L24.2708 46.9834L22.7189 46.2564L22.6588 46.3847C22.8334 46.6056 23.0004 46.88 23.1597 47.208C23.3231 47.5379 23.4134 47.9229 23.4306 48.3632C23.452 48.8053 23.3338 49.3013 23.0762 49.8512C22.7365 50.5763 22.2449 51.1432 21.6014 51.552C20.96 51.9668 20.1987 52.1764 19.3174 52.1808C18.4383 52.1911 17.4774 51.9521 16.4346 51.4635C15.4041 50.9807 14.6075 50.4014 14.045 49.7255C13.4824 49.0497 13.1482 48.3318 13.0422 47.5718C12.9363 46.8119 13.056 46.0633 13.4015 45.326C13.6534 44.7884 13.9519 44.3843 14.2972 44.1139C14.6424 43.8435 14.9919 43.6595 15.3456 43.562C15.7014 43.4704 16.0211 43.419 16.3045 43.4077L16.3474 43.3161L11.3496 40.9746L12.3858 38.7628ZM19.5813 44.779C18.9743 44.4946 18.4027 44.3311 17.8664 44.2885C17.3281 44.2499 16.8543 44.3334 16.445 44.539C16.0379 44.7507 15.7246 45.0907 15.5052 45.5591C15.2762 46.0479 15.2148 46.5183 15.3209 46.9704C15.4311 47.4244 15.6751 47.8417 16.0531 48.2224C16.4332 48.6092 16.9166 48.9399 17.5031 49.2147C18.0856 49.4876 18.642 49.6465 19.1724 49.6913C19.7027 49.7361 20.1735 49.6537 20.5847 49.4439C20.9959 49.2342 21.3169 48.883 21.5478 48.3901C21.7692 47.9176 21.8329 47.4582 21.7391 47.0118C21.6452 46.5655 21.4143 46.1518 21.0463 45.7708C20.6765 45.3939 20.1882 45.0633 19.5813 44.779Z" fill="#FFD0A8"/>
<path d="M13.2728 71.132L7.20044 71.1065L7.2107 68.664L17.5742 68.7076L17.5644 71.0421L15.8034 71.0347L15.8029 71.1561C16.3822 71.397 16.8416 71.779 17.1813 72.3022C17.5209 72.8299 17.6891 73.4806 17.6859 74.2543C17.6829 74.9695 17.5273 75.5918 17.2192 76.1213C16.9111 76.6553 16.4663 77.0672 15.8848 77.3572C15.3033 77.6516 14.5988 77.7948 13.7711 77.7869L7.17247 77.7591L7.18274 75.3167L13.4036 75.3428C14.0963 75.3457 14.639 75.1681 15.0319 74.8099C15.4247 74.4562 15.6224 73.9645 15.6251 73.3347C15.6269 72.9074 15.534 72.5269 15.3465 72.1933C15.1635 71.8642 14.8969 71.6044 14.5469 71.414C14.1968 71.2281 13.7721 71.1341 13.2728 71.132Z" fill="#FFD0A8"/>
<path d="M9.24508 91.7482C8.97609 90.7725 8.95762 89.8677 9.18966 89.0339C9.4217 88.2 9.86925 87.4794 10.5323 86.872C11.1966 86.2689 12.0448 85.8251 13.0768 85.5406C14.1089 85.2561 15.0668 85.202 15.9506 85.3782C16.8356 85.5588 17.5913 85.9477 18.2179 86.5449C18.8444 87.142 19.2922 87.9284 19.5612 88.9041C19.8302 89.8798 19.8487 90.7845 19.6166 91.6184C19.3846 92.4522 18.9343 93.1713 18.2657 93.7755C17.5982 94.3841 16.7485 94.8307 15.7165 95.1152C14.6844 95.3998 13.7281 95.4511 12.8474 95.2693C11.9679 95.0918 11.2149 94.7045 10.5884 94.1074C9.96183 93.5103 9.51406 92.7238 9.24508 91.7482ZM11.135 91.2411C11.2808 91.7702 11.548 92.1724 11.9366 92.4479C12.3295 92.7222 12.797 92.8779 13.3392 92.9151C13.8825 92.9566 14.4578 92.8937 15.0648 92.7263C15.6763 92.5577 16.2046 92.3164 16.65 92.0023C17.1008 91.6914 17.4247 91.3175 17.6215 90.8806C17.8184 90.4437 17.8439 89.9608 17.698 89.4318C17.5486 88.8897 17.2768 88.4794 16.8827 88.2008C16.4898 87.9265 16.0195 87.7692 15.4718 87.7289C14.9296 87.6917 14.3529 87.7574 13.7414 87.926C13.1343 88.0933 12.6075 88.3319 12.161 88.6416C11.7157 88.9557 11.3946 89.3312 11.1978 89.7681C11.0065 90.2081 10.9855 90.6991 11.135 91.2411Z" fill="#FFD0A8"/>
<path d="M15.2615 106.954L22.3712 98.865L23.7239 100.955L18.596 106.444L18.6473 106.523L25.7767 104.127L27.1147 106.195L22.0428 111.695L22.0978 111.78L29.1566 109.35L30.5129 111.446L20.2176 114.612L18.8356 112.477L23.6596 107.04L23.5827 106.922L16.6472 109.095L15.2615 106.954Z" fill="#FFD0A8"/>
<path d="M38.2236 131.833L40.6036 121.33L42.7907 122.52L40.9088 129.791L40.9918 129.836L46.1098 124.325L48.2731 125.502L46.4462 132.757L46.5351 132.806L51.5744 127.298L53.7674 128.491L46.2368 136.192L44.0024 134.977L45.6421 127.896L45.5176 127.828L40.464 133.052L38.2236 131.833Z" fill="#FFD0A8"/>
<path d="M57.3303 140.237L59.8853 130.193L62.2524 130.795L59.6974 140.839L57.3303 140.237ZM61.438 129.07C61.0631 128.975 60.7722 128.769 60.5651 128.452C60.3591 128.13 60.3011 127.793 60.3909 127.44C60.4818 127.082 60.6941 126.813 61.0275 126.634C61.3621 126.45 61.7169 126.405 62.0918 126.501C62.471 126.597 62.7615 126.806 62.963 127.126C63.1701 127.443 63.2282 127.781 63.1372 128.138C63.0474 128.491 62.8352 128.76 62.5006 128.944C62.1715 129.125 61.8173 129.167 61.438 129.07Z" fill="#FFD0A8"/>
<path d="M73.9604 132.363L73.839 134.248L67.8936 133.866L68.0149 131.98L73.9604 132.363ZM69.6423 129.597L72.0797 129.754L71.4547 139.463C71.4336 139.791 71.4668 140.045 71.5543 140.227C71.6465 140.404 71.7737 140.529 71.9357 140.603C72.0978 140.677 72.2798 140.72 72.4818 140.733C72.6344 140.743 72.7743 140.74 72.9014 140.726C73.033 140.712 73.1331 140.698 73.2016 140.684L73.4896 142.616C73.3566 142.653 73.1671 142.69 72.9212 142.729C72.6799 142.767 72.3861 142.78 72.0398 142.767C71.4282 142.745 70.8843 142.618 70.408 142.384C69.932 142.146 69.5642 141.803 69.3047 141.353C69.0496 140.904 68.9451 140.356 68.9912 139.71L69.6423 129.597Z" fill="#FFD0A8"/>
<path d="M83.7922 136.174L84.8601 142.152L82.4557 142.582L80.0255 128.979L82.3768 128.559L83.294 133.693L83.4136 133.672C83.5499 133.053 83.8385 132.533 84.2796 132.112C84.7242 131.685 85.3362 131.402 86.1156 131.263C86.824 131.136 87.4682 131.174 88.0482 131.377C88.6281 131.579 89.113 131.941 89.5029 132.46C89.8972 132.979 90.1679 133.651 90.315 134.474L91.4755 140.97L89.0711 141.4L87.9771 135.276C87.8545 134.589 87.582 134.087 87.1597 133.77C86.7411 133.447 86.2152 133.342 85.582 133.456C85.1569 133.531 84.7927 133.692 84.4894 133.939C84.1897 134.179 83.9756 134.49 83.8469 134.869C83.7226 135.248 83.7043 135.683 83.7922 136.174Z" fill="#FFD0A8"/>
<path d="M110.526 133.401L109.489 131.919L110.723 125.316C110.833 124.673 110.91 124.116 110.954 123.646C110.999 123.176 110.987 122.759 110.918 122.395C110.85 122.031 110.707 121.692 110.487 121.379C110.237 121.021 109.942 120.772 109.602 120.632C109.259 120.487 108.897 120.444 108.515 120.503C108.133 120.561 107.762 120.717 107.401 120.97C107.029 121.23 106.757 121.536 106.585 121.887C106.411 122.234 106.344 122.602 106.385 122.99C106.43 123.376 106.588 123.762 106.859 124.149L104.908 125.515C104.405 124.796 104.132 124.057 104.088 123.297C104.045 122.537 104.208 121.81 104.58 121.116C104.954 120.42 105.516 119.81 106.264 119.287C107.023 118.755 107.789 118.43 108.563 118.312C109.336 118.193 110.054 118.27 110.717 118.542C111.383 118.811 111.938 119.263 112.382 119.896C112.678 120.32 112.889 120.793 113.013 121.316C113.137 121.838 113.169 122.492 113.108 123.275C113.051 124.057 112.903 125.058 112.665 126.278L112.103 129.629L112.157 129.706L117.088 126.255L118.287 127.968L110.526 133.401Z" fill="#FFD0A8"/>
<path d="M128.639 118.01C127.941 118.875 127.123 119.441 126.186 119.707C125.248 119.967 124.23 119.929 123.132 119.592C122.033 119.249 120.897 118.605 119.724 117.659C118.554 116.709 117.691 115.738 117.134 114.745C116.576 113.746 116.328 112.763 116.391 111.797C116.457 110.827 116.837 109.911 117.532 109.05C118.227 108.189 119.041 107.624 119.975 107.354C120.909 107.085 121.922 107.119 123.014 107.456C124.108 107.79 125.24 108.429 126.409 109.372C127.586 110.321 128.456 111.298 129.021 112.303C129.586 113.301 129.837 114.287 129.774 115.259C129.715 116.228 129.336 117.145 128.639 118.01ZM126.995 116.684C127.537 116.012 127.634 115.215 127.286 114.292C126.937 113.364 126.117 112.378 124.825 111.336C123.971 110.647 123.181 110.157 122.456 109.867C121.731 109.577 121.09 109.476 120.533 109.564C119.973 109.649 119.513 109.915 119.155 110.359C118.615 111.028 118.521 111.825 118.873 112.75C119.221 113.672 120.035 114.652 121.313 115.689C122.168 116.385 122.958 116.881 123.684 117.177C124.413 117.471 125.057 117.574 125.618 117.489C126.174 117.401 126.633 117.132 126.995 116.684Z" fill="#FFD0A8"/>
<path d="M137.105 97.9414L136.422 97.6865C135.921 97.4992 135.499 97.2216 135.156 96.8535C134.815 96.4812 134.592 96.0427 134.488 95.538C134.383 95.0333 134.44 94.4901 134.657 93.9086C134.88 93.3103 135.196 92.8568 135.604 92.5483C136.008 92.2382 136.459 92.0585 136.958 92.0094C137.458 91.9561 137.961 92.0238 138.466 92.2127L139.149 92.4676C139.651 92.6549 140.073 92.9325 140.415 93.3006C140.758 93.6686 140.982 94.105 141.086 94.6098C141.192 95.1103 141.135 95.6555 140.914 96.2455C140.694 96.8354 140.379 97.2868 139.969 97.5995C139.56 97.9123 139.105 98.0953 138.605 98.1486C138.106 98.1978 137.606 98.1287 137.105 97.9414ZM137.038 96.0368L137.721 96.2917C138.054 96.416 138.389 96.45 138.727 96.3938C139.065 96.3375 139.31 96.1071 139.461 95.7026C139.613 95.2938 139.581 94.9625 139.364 94.7085C139.144 94.4487 138.865 94.2559 138.528 94.13L137.846 93.8751C137.509 93.7492 137.173 93.708 136.84 93.7517C136.503 93.7937 136.255 94.0254 136.098 94.4468C135.95 94.8429 135.987 95.1759 136.208 95.4456C136.424 95.7138 136.701 95.9109 137.038 96.0368ZM127.24 101.755L126.557 101.5C126.051 101.311 125.628 101.031 125.287 100.658C124.946 100.286 124.725 99.8484 124.625 99.3452C124.521 98.8405 124.577 98.2973 124.794 97.7158C125.016 97.1217 125.331 96.6703 125.739 96.3618C126.145 96.0474 126.597 95.8657 127.095 95.8166C127.593 95.7675 128.096 95.8374 128.601 96.0262L129.284 96.2811C129.79 96.47 130.214 96.7484 130.556 97.1165C130.896 97.4787 131.117 97.9114 131.217 98.4146C131.317 98.9178 131.258 99.4622 131.039 100.048C130.817 100.642 130.503 101.096 130.098 101.411C129.694 101.721 129.242 101.902 128.742 101.956C128.242 102.009 127.741 101.942 127.24 101.755ZM127.178 99.8376L127.861 100.093C128.198 100.218 128.534 100.255 128.871 100.203C129.204 100.145 129.447 99.9143 129.598 99.5098C129.749 99.1052 129.716 98.776 129.499 98.522C129.279 98.2622 129 98.0694 128.663 97.9435L127.98 97.6886C127.643 97.5627 127.308 97.5215 126.975 97.5652C126.638 97.6072 126.391 97.8368 126.235 98.254C126.086 98.6543 126.122 98.9873 126.345 99.2528C126.567 99.5184 126.845 99.7133 127.178 99.8376ZM137.344 104.707L127.722 90.9733L128.313 89.3931L137.934 103.127L137.344 104.707Z" fill="#FFD0A8"/>
<path d="M143.924 67.0487C144.042 68.0538 143.923 68.9509 143.567 69.7399C143.211 70.5289 142.659 71.1733 141.912 71.6731C141.163 72.1684 140.258 72.4783 139.195 72.603C138.131 72.7277 137.176 72.6358 136.329 72.3275C135.482 72.0147 134.794 71.5157 134.265 70.8304C133.737 70.1451 133.413 69.2999 133.295 68.2947C133.178 67.2895 133.297 66.3924 133.653 65.6034C134.008 64.8144 134.563 64.172 135.315 63.6762C136.067 63.1759 136.975 62.8634 138.038 62.7387C139.101 62.6141 140.054 62.7084 140.897 63.0217C141.74 63.3306 142.425 63.8276 142.954 64.5129C143.483 65.1982 143.806 66.0435 143.924 67.0487ZM141.979 67.2631C141.915 66.718 141.712 66.2799 141.369 65.9487C141.023 65.6179 140.584 65.3931 140.054 65.2741C139.523 65.1506 138.945 65.1256 138.32 65.1989C137.69 65.2727 137.131 65.4311 136.643 65.674C136.15 65.9129 135.773 66.2334 135.513 66.6353C135.252 67.0373 135.153 67.5107 135.217 68.0558C135.283 68.6142 135.489 69.061 135.836 69.3962C136.183 69.7269 136.624 69.9538 137.159 70.0767C137.689 70.1957 138.27 70.2183 138.899 70.1444C139.525 70.0711 140.082 69.9152 140.57 69.6768C141.058 69.4339 141.432 69.1115 141.693 68.7096C141.949 68.3037 142.044 67.8215 141.979 67.2631Z" fill="#FFD0A8"/>
<path d="M129.309 51.9238L131.078 51.2622L133.224 57.0007L131.454 57.6623L129.309 51.9238ZM140.625 52.5984L130.001 56.5703C129.348 56.8144 128.754 56.8828 128.22 56.7754C127.683 56.6638 127.222 56.4185 126.835 56.0396C126.449 55.6607 126.151 55.191 125.941 54.6307C125.793 54.2346 125.693 53.871 125.641 53.5398C125.59 53.2086 125.561 52.9598 125.557 52.7934L127.496 52.5869C127.503 52.6948 127.519 52.828 127.545 52.9865C127.566 53.1466 127.611 53.3172 127.679 53.4984C127.838 53.9239 128.054 54.1866 128.326 54.2864C128.593 54.3835 128.916 54.3612 129.295 54.2194L139.767 50.3043L140.625 52.5984Z" fill="#FFD0A8"/>
<path d="M123.508 41.2784L125.102 40.2642L128.391 45.4329L126.797 46.4471L123.508 41.2784ZM134.719 39.5912L125.15 45.6801C124.562 46.0544 123.995 46.2445 123.449 46.2504C122.901 46.2524 122.399 46.1082 121.942 45.8177C121.486 45.5272 121.097 45.1296 120.775 44.6249C120.548 44.2682 120.375 43.9332 120.256 43.6199C120.137 43.3067 120.057 43.0691 120.018 42.9073L121.873 42.303C121.902 42.4071 121.946 42.5341 122.004 42.6838C122.058 42.836 122.137 42.9936 122.241 43.1568C122.484 43.5401 122.75 43.7523 123.037 43.7933C123.319 43.833 123.63 43.7442 123.971 43.5269L133.404 37.5248L134.719 39.5912Z" fill="#FFD0A8"/>
<path d="M123.612 25.1366C124.363 25.8547 124.862 26.6309 125.11 27.4653C125.351 28.2998 125.343 29.1446 125.085 29.9998C124.825 30.8583 124.32 31.6793 123.57 32.4628C122.834 33.2332 122.041 33.7696 121.192 34.0717C120.336 34.374 119.488 34.4343 118.647 34.2527C117.804 34.0744 117.024 33.6432 116.309 32.9593C115.847 32.5179 115.483 32.0266 115.216 31.4853C114.943 30.9442 114.797 30.3685 114.777 29.7581C114.754 29.1446 114.879 28.5119 115.154 27.8599C115.426 27.2111 115.876 26.5584 116.504 25.9017L117.022 25.3604L123.161 31.2312L122.023 32.421L117.576 28.1684C117.256 28.5096 117.041 28.8802 116.933 29.2803C116.821 29.6837 116.82 30.0846 116.931 30.483C117.038 30.8782 117.261 31.2375 117.599 31.5608C117.96 31.9059 118.361 32.1212 118.802 32.2068C119.24 32.2956 119.67 32.2717 120.094 32.1349C120.511 31.9983 120.881 31.7642 121.204 31.4324L122.197 30.3937C122.614 29.9581 122.892 29.5081 123.031 29.0436C123.167 28.5825 123.171 28.1322 123.044 27.6928C122.913 27.2567 122.656 26.8553 122.272 26.4884C122.015 26.2429 121.749 26.0563 121.472 25.9289C121.193 25.8047 120.908 25.7411 120.619 25.738C120.329 25.735 120.044 25.8018 119.764 25.9385L118.293 24.1771C118.814 23.8409 119.376 23.6502 119.979 23.6049C120.576 23.5597 121.186 23.6638 121.809 23.9171C122.429 24.1736 123.03 24.5801 123.612 25.1366Z" fill="#FFD0A8"/>
<path d="M112.476 16.4767L107.309 25.4604L105.256 24.2797L106.117 22.7824L106.024 22.7285C105.562 23.1529 105.051 23.3911 104.492 23.4431C103.927 23.4968 103.387 23.3756 102.872 23.0796C102.755 23.0123 102.628 22.9313 102.49 22.8366C102.347 22.7436 102.232 22.6593 102.145 22.5838L103.266 20.6361C103.337 20.7189 103.464 20.8281 103.645 20.9636C103.821 21.1008 103.998 21.2209 104.178 21.3241C104.564 21.5461 104.959 21.6619 105.363 21.6714C105.762 21.6825 106.133 21.5924 106.476 21.4008C106.82 21.2093 107.102 20.9225 107.321 20.5404L110.359 15.2589L112.476 16.4767Z" fill="#FFD0A8"/>
<path d="M89.6848 14.9744L91.8883 15.3759C91.8846 15.6094 91.93 15.8435 92.0245 16.0781C92.1147 16.3113 92.2676 16.5234 92.4831 16.7141C92.6985 16.9048 92.9874 17.054 93.3495 17.1617C93.8368 17.3065 94.2778 17.3226 94.6726 17.21C95.063 17.0962 95.3061 16.8704 95.4018 16.5328C95.4919 16.2452 95.4562 15.9789 95.2944 15.7337C95.1283 15.4872 94.8104 15.2308 94.3405 14.9645L92.7537 14.0986C91.8739 13.6166 91.2709 13.0878 90.9446 12.5121C90.614 11.9352 90.5522 11.2904 90.7594 10.5777C90.9495 9.95379 91.2968 9.45636 91.8012 9.08541C92.3001 8.7175 92.9083 8.49471 93.6259 8.41706C94.3435 8.33941 95.1162 8.42361 95.944 8.66967C97.1599 9.03107 98.0631 9.57638 98.6534 10.3056C99.2425 11.0391 99.4724 11.884 99.343 12.8404L96.9946 12.3817C97.0244 11.9025 96.9051 11.4987 96.6367 11.1702C96.3683 10.8418 95.9646 10.5974 95.4257 10.4372C94.8695 10.2719 94.3893 10.2535 93.985 10.3821C93.5765 10.5094 93.3222 10.7411 93.2223 11.0775C93.1377 11.362 93.1778 11.6297 93.3426 11.8805C93.5031 12.1299 93.7971 12.3722 94.2246 12.6072L95.8134 13.4666C96.7073 13.9481 97.313 14.4918 97.6303 15.0976C97.9464 15.7078 97.9946 16.3744 97.775 17.0975C97.5973 17.711 97.2737 18.192 96.8041 18.5404C96.3289 18.8919 95.753 19.1008 95.0763 19.1672C94.394 19.2366 93.6562 19.1533 92.8628 18.9175C91.6987 18.5715 90.8562 18.0513 90.3352 17.3568C89.81 16.661 89.5932 15.8669 89.6848 14.9744Z" fill="#FFD0A8"/>
</svg>
